# This file uses centimeters as units for non-parametric coordinates.

mtllib K2.mtl
g default
v -5.326274 -89.556165 8.824926
v 5.962148 -89.556165 0.003755
v -5.326274 89.556165 8.824926
v 5.962148 89.556165 0.003755
v -5.962148 89.556165 -5.962148
v -5.962148 -89.556165 -5.962148
vt 0.632386 0.069609
vt 0.945468 0.290486
vt 0.632386 0.465446
vt 0.938778 0.792357
vt 0.623657 0.634698
vt 0.938778 0.401583
vt 0.377546 0.001992
vt 0.499559 0.001992
vt 0.499559 0.998008
vt 0.377546 0.998008
vt 0.196098 0.001992
vt 0.311376 0.001992
vt 0.311376 0.998008
vt 0.196098 0.998008
vt 0.026432 0.001992
vt 0.143051 0.001992
vt 0.143051 0.998008
vt 0.026432 0.998008
vn 0.000000 1.000000 0.000000
vn 0.000000 1.000000 0.000000
vn 0.000000 1.000000 0.000000
vn 0.000000 -1.000000 0.000000
vn 0.000000 -1.000000 0.000000
vn 0.000000 -1.000000 0.000000
vn -0.999077 0.000000 0.042962
vn -0.999077 0.000000 0.042962
vn -0.999077 0.000000 0.042962
vn -0.999077 0.000000 0.042962
vn 0.447439 0.000000 -0.894315
vn 0.447439 0.000000 -0.894315
vn 0.447439 0.000000 -0.894315
vn 0.447439 0.000000 -0.894315
vn 0.615735 0.000000 0.787953
vn 0.615735 0.000000 0.787953
vn 0.615735 0.000000 0.787953
vn 0.615735 0.000000 0.787953
s off
g pCube1
usemtl initialShadingGroup
f 3/1/1 4/2/2 5/3/3
f 6/4/4 2/5/5 1/6/6
f 1/8/7 3/9/8 5/10/9 6/7/10
f 5/13/11 4/14/12 2/11/13 6/12/14
f 2/16/15 4/17/16 3/18/17 1/15/18
