# This file uses centimeters as units for non-parametric coordinates.

mtllib K3.mtl
g default
v 7.651647 -89.278024 -7.651647
v 0.000000 -89.278024 -10.821062
v -7.651647 -89.278024 -7.651647
v -10.821062 -89.278024 0.000000
v -7.651647 -89.278024 7.651647
v 0.000000 -89.278024 10.821063
v 7.651647 -89.278024 7.651647
v 10.821064 -89.278024 0.000000
v 7.651647 89.277866 -7.651647
v 0.000000 89.277866 -10.821062
v -7.651647 89.277866 -7.651647
v -10.821062 89.277866 0.000000
v -7.651647 89.277866 7.651647
v 0.000000 89.277866 10.821063
v 7.651647 89.277866 7.651647
v 10.821064 89.277866 0.000000
v 0.000000 -89.278024 0.000000
v 0.000000 89.277866 0.000000
vt 0.224790 0.394233
vt 0.132504 0.356006
vt 0.040218 0.394233
vt 0.001992 0.486518
vt 0.040218 0.578804
vt 0.132504 0.617030
vt 0.224790 0.578804
vt 0.263016 0.486518
vt 0.490589 0.394233
vt 0.398303 0.356006
vt 0.306017 0.394233
vt 0.267791 0.486518
vt 0.306017 0.578804
vt 0.398303 0.617031
vt 0.490589 0.578804
vt 0.528815 0.486518
vt 0.132504 0.486518
vt 0.398303 0.486518
vt 0.250996 0.353377
vt 0.126494 0.353378
vt 0.126494 0.001232
vt 0.250996 0.001232
vt 0.001992 0.353378
vt 0.001992 0.001232
vt 0.749004 0.353378
vt 0.624502 0.353378
vt 0.624502 0.001232
vt 0.749004 0.001232
vt 0.500000 0.353377
vt 0.500000 0.001232
vt 0.375498 0.353377
vt 0.375498 0.001233
vt 0.998008 0.353378
vt 0.873506 0.353378
vt 0.873506 0.001232
vt 0.998008 0.001232
vn 0.382683 0.000000 -0.923880
vn 0.382683 0.000000 -0.923880
vn 0.382683 0.000000 -0.923880
vn 0.382683 0.000000 -0.923880
vn -0.382683 0.000000 -0.923880
vn -0.382683 0.000000 -0.923880
vn -0.382683 0.000000 -0.923880
vn -0.382683 0.000000 -0.923880
vn -0.923880 0.000000 -0.382683
vn -0.923880 0.000000 -0.382683
vn -0.923880 0.000000 -0.382683
vn -0.923880 0.000000 -0.382683
vn -0.923880 0.000000 0.382683
vn -0.923880 0.000000 0.382683
vn -0.923880 0.000000 0.382683
vn -0.923880 0.000000 0.382683
vn -0.382683 0.000000 0.923880
vn -0.382683 0.000000 0.923880
vn -0.382683 0.000000 0.923880
vn -0.382683 0.000000 0.923880
vn 0.382683 0.000000 0.923880
vn 0.382683 0.000000 0.923880
vn 0.382683 0.000000 0.923880
vn 0.382683 0.000000 0.923880
vn 0.923880 0.000000 0.382683
vn 0.923880 0.000000 0.382683
vn 0.923880 0.000000 0.382683
vn 0.923880 0.000000 0.382683
vn 0.923879 0.000000 -0.382684
vn 0.923879 0.000000 -0.382684
vn 0.923879 0.000000 -0.382684
vn 0.923879 0.000000 -0.382684
vn 0.000000 -1.000000 0.000000
vn 0.000000 -1.000000 0.000000
vn 0.000000 -1.000000 0.000000
vn 0.000000 -1.000000 0.000000
vn 0.000000 -1.000000 0.000000
vn 0.000000 -1.000000 0.000000
vn 0.000000 -1.000000 0.000000
vn 0.000000 -1.000000 0.000000
vn 0.000000 -1.000000 0.000000
vn 0.000000 1.000000 0.000000
vn 0.000000 1.000000 0.000000
vn 0.000000 1.000000 0.000000
vn 0.000000 1.000000 0.000000
vn 0.000000 1.000000 0.000000
vn 0.000000 1.000000 0.000000
vn 0.000000 1.000000 0.000000
vn 0.000000 1.000000 0.000000
vn 0.000000 1.000000 0.000000
s off
g pCylinder1
usemtl initialShadingGroup
f 1/29/1 2/31/2 10/32/3 9/30/4
f 2/31/5 3/19/6 11/22/7 10/32/8
f 3/19/9 4/20/10 12/21/11 11/22/12
f 4/20/13 5/23/14 13/24/15 12/21/16
f 5/33/17 6/34/18 14/35/19 13/36/20
f 6/34/21 7/25/22 15/28/23 14/35/24
f 7/25/25 8/26/26 16/27/27 15/28/28
f 8/26/29 1/29/30 9/30/31 16/27/32
s 1
f 2/2/33 1/1/34 17/17/35
f 3/3/36 2/2/33 17/17/35
f 4/4/37 3/3/36 17/17/35
f 5/5/38 4/4/37 17/17/35
f 6/6/39 5/5/38 17/17/35
f 7/7/40 6/6/39 17/17/35
f 8/8/41 7/7/40 17/17/35
f 1/1/34 8/8/41 17/17/35
s 2
f 9/15/42 10/14/43 18/18/44
f 10/14/43 11/13/45 18/18/44
f 11/13/45 12/12/46 18/18/44
f 12/12/46 13/11/47 18/18/44
f 13/11/47 14/10/48 18/18/44
f 14/10/48 15/9/49 18/18/44
f 15/9/49 16/16/50 18/18/44
f 16/16/50 9/15/42 18/18/44
