# This file uses centimeters as units for non-parametric coordinates.

mtllib Cylinder.mtl
g default
v 0.000000 -100.000000 0.000000
v 0.000000 100.000000 0.000000
v 95.105713 -95.062065 -30.901718
v 93.713066 -98.553711 -30.449221
v 90.350922 -100.000000 -29.356796
v 80.901756 -95.062065 -58.778561
v 79.717102 -98.553711 -57.917858
v 76.857086 -100.000000 -55.839935
v 58.778561 -95.062065 -80.901749
v 57.917858 -98.553711 -79.717094
v 55.839939 -100.000000 -76.857079
v 30.901714 -95.062065 -95.105705
v 30.449217 -98.553711 -93.713058
v 29.356791 -100.000000 -90.350914
v 0.000000 -95.062065 -100.000046
v 0.000000 -98.553711 -98.535728
v 0.000001 -100.000000 -95.000565
v -30.901714 -95.062065 -95.105698
v -30.449217 -98.553711 -93.713051
v -29.356789 -100.000000 -90.350906
v -58.778549 -95.062065 -80.901733
v -57.917847 -98.553711 -79.717079
v -55.839924 -100.000000 -76.857063
v -80.901726 -95.062065 -58.778542
v -79.717072 -98.553711 -57.917839
v -76.857056 -100.000000 -55.839920
v -95.105675 -95.062065 -30.901707
v -93.713028 -98.553711 -30.449209
v -90.350883 -100.000000 -29.356781
v -100.000023 -95.062065 0.000000
v -98.535706 -98.553711 0.000000
v -95.000542 -100.000000 0.000000
v -95.105675 -95.062065 30.901707
v -93.713028 -98.553711 30.449209
v -90.350883 -100.000000 29.356781
v -80.901718 -95.062065 58.778538
v -79.717064 -98.553711 57.917835
v -76.857048 -100.000000 55.839912
v -58.778538 -95.062065 80.901711
v -57.917835 -98.553711 79.717056
v -55.839916 -100.000000 76.857040
v -30.901707 -95.062065 95.105667
v -30.449209 -98.553711 93.713020
v -29.356781 -100.000000 90.350876
v -0.000003 -95.062065 100.000015
v -0.000003 -98.553711 98.535698
v -0.000004 -100.000000 95.000534
v 30.901697 -95.062065 95.105659
v 30.449200 -98.553711 93.713013
v 29.356771 -100.000000 90.350868
v 58.778526 -95.062065 80.901703
v 57.917824 -98.553711 79.717049
v 55.839901 -100.000000 76.857033
v 80.901703 -95.062065 58.778530
v 79.717049 -98.553711 57.917828
v 76.857033 -100.000000 55.839905
v 95.105652 -95.062065 30.901701
v 93.713005 -98.553711 30.449203
v 90.350861 -100.000000 29.356775
v 100.000000 -95.062065 0.000000
v 98.535683 -98.553711 -0.000001
v 95.000519 -100.000000 -0.000005
v 95.105713 95.062065 -30.901718
v 93.713066 98.553711 -30.449221
v 90.350922 100.000000 -29.356796
v 80.901756 95.062065 -58.778561
v 79.717102 98.553711 -57.917858
v 76.857086 100.000000 -55.839935
v 58.778561 95.062065 -80.901749
v 57.917858 98.553711 -79.717094
v 55.839939 100.000000 -76.857079
v 30.901714 95.062065 -95.105705
v 30.449217 98.553711 -93.713058
v 29.356791 100.000000 -90.350914
v 0.000000 95.062065 -100.000046
v 0.000000 98.553711 -98.535728
v 0.000001 100.000000 -95.000565
v -30.901714 95.062065 -95.105698
v -30.449217 98.553711 -93.713051
v -29.356789 100.000000 -90.350906
v -58.778549 95.062065 -80.901733
v -57.917847 98.553711 -79.717079
v -55.839924 100.000000 -76.857063
v -80.901726 95.062065 -58.778542
v -79.717072 98.553711 -57.917839
v -76.857056 100.000000 -55.839920
v -95.105675 95.062065 -30.901707
v -93.713028 98.553711 -30.449209
v -90.350883 100.000000 -29.356781
v -100.000023 95.062065 0.000000
v -98.535706 98.553711 0.000000
v -95.000542 100.000000 0.000000
v -95.105675 95.062065 30.901707
v -93.713028 98.553711 30.449209
v -90.350883 100.000000 29.356781
v -80.901718 95.062065 58.778538
v -79.717064 98.553711 57.917835
v -76.857048 100.000000 55.839912
v -58.778538 95.062065 80.901711
v -57.917835 98.553711 79.717056
v -55.839916 100.000000 76.857040
v -30.901707 95.062065 95.105667
v -30.449209 98.553711 93.713020
v -29.356781 100.000000 90.350876
v -0.000003 95.062065 100.000015
v -0.000003 98.553711 98.535698
v -0.000004 100.000000 95.000534
v 30.901697 95.062065 95.105659
v 30.449200 98.553711 93.713013
v 29.356771 100.000000 90.350868
v 58.778526 95.062065 80.901703
v 57.917824 98.553711 79.717049
v 55.839901 100.000000 76.857033
v 80.901703 95.062065 58.778530
v 79.717049 98.553711 57.917828
v 76.857033 100.000000 55.839905
v 95.105652 95.062065 30.901701
v 93.713005 98.553711 30.449203
v 90.350861 100.000000 29.356775
v 100.000000 95.062065 0.000000
v 98.535683 98.553711 -0.000001
v 95.000519 100.000000 -0.000005
vt 0.051793 0.009654
vt 0.001992 0.334180
vt 0.101594 0.009654
vt 0.051793 0.334180
vt 0.151394 0.009655
vt 0.101594 0.334180
vt 0.201195 0.009655
vt 0.151394 0.334180
vt 0.250996 0.009654
vt 0.201195 0.334180
vt 0.300797 0.009654
vt 0.250996 0.334180
vt 0.350598 0.009654
vt 0.300797 0.334180
vt 0.400398 0.009655
vt 0.350598 0.334180
vt 0.450199 0.009654
vt 0.400398 0.334180
vt 0.500000 0.009654
vt 0.450199 0.334180
vt 0.549801 0.009654
vt 0.500000 0.334180
vt 0.599602 0.009655
vt 0.549801 0.334180
vt 0.649402 0.009654
vt 0.599602 0.334180
vt 0.699203 0.009654
vt 0.649402 0.334180
vt 0.749004 0.009655
vt 0.699203 0.334180
vt 0.798805 0.009654
vt 0.749004 0.334180
vt 0.848606 0.009654
vt 0.798805 0.334180
vt 0.898406 0.009654
vt 0.848605 0.334180
vt 0.948207 0.009654
vt 0.898406 0.334180
vt 0.998008 0.009655
vt 0.948207 0.334180
vt 0.258143 0.440291
vt 0.239985 0.404654
vt 0.211702 0.376372
vt 0.176064 0.358213
vt 0.136560 0.351956
vt 0.097055 0.358213
vt 0.061417 0.376372
vt 0.033135 0.404654
vt 0.014977 0.440292
vt 0.008720 0.479796
vt 0.014977 0.519301
vt 0.033135 0.554939
vt 0.061417 0.583221
vt 0.097055 0.601379
vt 0.136560 0.607636
vt 0.176064 0.601379
vt 0.211702 0.583221
vt 0.239985 0.554939
vt 0.258143 0.519301
vt 0.136560 0.479796
vt 0.264400 0.479796
vt 0.513876 0.554939
vt 0.485594 0.583221
vt 0.449956 0.601379
vt 0.410452 0.607636
vt 0.370947 0.601379
vt 0.335309 0.583221
vt 0.307027 0.554939
vt 0.288869 0.519301
vt 0.282611 0.479796
vt 0.288868 0.440291
vt 0.307027 0.404654
vt 0.335309 0.376372
vt 0.370947 0.358213
vt 0.410452 0.351956
vt 0.449956 0.358213
vt 0.485594 0.376371
vt 0.513876 0.404654
vt 0.532035 0.440291
vt 0.538292 0.479796
vt 0.532035 0.519301
vt 0.410452 0.479796
vt 0.001992 0.009654
vt 0.998008 0.334180
vt 0.998008 0.001226
vt 0.264541 0.438213
vt 0.001992 0.001226
vt 0.245427 0.400699
vt 0.051793 0.001226
vt 0.215657 0.370929
vt 0.101594 0.001226
vt 0.178143 0.351815
vt 0.151394 0.001226
vt 0.136560 0.345229
vt 0.201195 0.001226
vt 0.094976 0.351815
vt 0.250996 0.001226
vt 0.057463 0.370929
vt 0.300797 0.001226
vt 0.027692 0.400699
vt 0.350598 0.001226
vt 0.008578 0.438213
vt 0.400398 0.001226
vt 0.001992 0.479796
vt 0.450199 0.001226
vt 0.008578 0.521380
vt 0.500000 0.001226
vt 0.027692 0.558893
vt 0.549801 0.001226
vt 0.057463 0.588664
vt 0.599602 0.001226
vt 0.094976 0.607778
vt 0.649402 0.001226
vt 0.136560 0.614364
vt 0.699203 0.001226
vt 0.178143 0.607778
vt 0.749004 0.001226
vt 0.215657 0.588664
vt 0.798805 0.001226
vt 0.245427 0.558893
vt 0.848606 0.001226
vt 0.264541 0.521380
vt 0.898406 0.001226
vt 0.271127 0.479796
vt 0.948207 0.001226
vt 0.001992 0.342609
vt 0.538433 0.521380
vt 0.998008 0.342609
vt 0.051793 0.342609
vt 0.519319 0.558893
vt 0.101594 0.342609
vt 0.489549 0.588664
vt 0.151394 0.342609
vt 0.452035 0.607778
vt 0.201195 0.342609
vt 0.410452 0.614364
vt 0.250996 0.342609
vt 0.368868 0.607778
vt 0.300797 0.342609
vt 0.331355 0.588664
vt 0.350598 0.342609
vt 0.301584 0.558893
vt 0.400398 0.342609
vt 0.282470 0.521380
vt 0.450199 0.342609
vt 0.275884 0.479796
vt 0.500000 0.342609
vt 0.282470 0.438213
vt 0.549801 0.342609
vt 0.301584 0.400699
vt 0.599602 0.342609
vt 0.331355 0.370929
vt 0.649402 0.342609
vt 0.368868 0.351815
vt 0.699203 0.342609
vt 0.410452 0.345229
vt 0.749004 0.342609
vt 0.452035 0.351815
vt 0.798805 0.342609
vt 0.489549 0.370929
vt 0.848606 0.342609
vt 0.519319 0.400699
vt 0.898406 0.342609
vt 0.538433 0.438213
vt 0.545019 0.479796
vt 0.948207 0.342609
vn 0.951032 -0.007224 -0.309008
vn 0.808996 -0.007224 -0.587770
vn 0.808996 0.007224 -0.587770
vn 0.951032 0.007224 -0.309008
vn 0.587770 -0.007224 -0.808996
vn 0.587770 0.007224 -0.808996
vn 0.309009 -0.007224 -0.951032
vn 0.309009 0.007224 -0.951032
vn 0.000000 -0.007224 -0.999974
vn 0.000000 0.007224 -0.999974
vn -0.309009 -0.007224 -0.951032
vn -0.309009 0.007224 -0.951032
vn -0.587770 -0.007224 -0.808996
vn -0.587770 0.007224 -0.808996
vn -0.808996 -0.007224 -0.587770
vn -0.808996 0.007224 -0.587770
vn -0.951032 -0.007224 -0.309009
vn -0.951032 0.007224 -0.309009
vn -0.999974 -0.007224 0.000000
vn -0.999974 0.007224 0.000000
vn -0.951032 -0.007224 0.309009
vn -0.951032 0.007224 0.309009
vn -0.808996 -0.007224 0.587770
vn -0.808996 0.007224 0.587770
vn -0.587770 -0.007224 0.808996
vn -0.587770 0.007224 0.808996
vn -0.309009 -0.007224 0.951032
vn -0.309009 0.007224 0.951032
vn 0.000000 -0.007224 0.999974
vn 0.000000 0.007224 0.999974
vn 0.309009 -0.007224 0.951032
vn 0.309009 0.007224 0.951032
vn 0.587770 -0.007224 0.808996
vn 0.587770 0.007224 0.808996
vn 0.808996 -0.007224 0.587770
vn 0.808996 0.007224 0.587770
vn 0.951032 -0.007224 0.309009
vn 0.951032 0.007224 0.309009
vn 0.999974 -0.007224 0.000001
vn 0.999974 0.007224 0.000001
vn 0.027875 -0.999406 -0.020252
vn 0.032769 -0.999406 -0.010647
vn 0.000000 -1.000000 -0.000000
vn 0.020252 -0.999406 -0.027875
vn 0.010647 -0.999406 -0.032769
vn 0.000000 -0.999406 -0.034455
vn -0.010647 -0.999406 -0.032769
vn -0.020252 -0.999406 -0.027875
vn -0.027875 -0.999406 -0.020252
vn -0.032769 -0.999406 -0.010647
vn -0.034455 -0.999406 0.000000
vn -0.032769 -0.999406 0.010647
vn -0.027875 -0.999406 0.020252
vn -0.020252 -0.999406 0.027875
vn -0.010647 -0.999406 0.032769
vn 0.000000 -0.999406 0.034455
vn 0.010647 -0.999406 0.032769
vn 0.020252 -0.999406 0.027875
vn 0.027875 -0.999406 0.020252
vn 0.032769 -0.999406 0.010647
vn 0.034455 -0.999406 0.000000
vn 0.032769 0.999406 -0.010647
vn 0.027875 0.999406 -0.020252
vn 0.000000 1.000000 0.000000
vn 0.020252 0.999406 -0.027875
vn 0.010647 0.999406 -0.032769
vn 0.000000 0.999406 -0.034455
vn -0.010647 0.999406 -0.032769
vn -0.020252 0.999406 -0.027875
vn -0.027875 0.999406 -0.020252
vn -0.032769 0.999406 -0.010647
vn -0.034455 0.999406 0.000000
vn -0.032769 0.999406 0.010647
vn -0.027875 0.999406 0.020252
vn -0.020252 0.999406 0.027875
vn -0.010647 0.999406 0.032769
vn 0.000000 0.999406 0.034455
vn 0.010647 0.999406 0.032769
vn 0.020252 0.999406 0.027875
vn 0.027875 0.999406 0.020252
vn 0.032769 0.999406 0.010647
vn 0.034455 0.999406 0.000000
vn 0.877053 -0.386743 -0.284971
vn 0.746065 -0.386743 -0.542049
vn 0.360119 -0.925540 -0.117009
vn 0.306335 -0.925540 -0.222565
vn 0.542048 -0.386743 -0.746065
vn 0.222566 -0.925540 -0.306335
vn 0.284971 -0.386744 -0.877052
vn 0.117010 -0.925539 -0.360120
vn 0.000000 -0.386744 -0.922187
vn 0.000000 -0.925539 -0.378652
vn -0.284972 -0.386744 -0.877052
vn -0.117010 -0.925540 -0.360119
vn -0.542049 -0.386744 -0.746065
vn -0.222566 -0.925540 -0.306334
vn -0.746065 -0.386743 -0.542048
vn -0.306335 -0.925539 -0.222566
vn -0.877052 -0.386744 -0.284971
vn -0.360119 -0.925539 -0.117011
vn -0.922187 -0.386745 0.000000
vn -0.378652 -0.925539 0.000000
vn -0.877052 -0.386744 0.284972
vn -0.360119 -0.925539 0.117010
vn -0.746065 -0.386743 0.542048
vn -0.306335 -0.925539 0.222566
vn -0.542048 -0.386743 0.746065
vn -0.222566 -0.925540 0.306335
vn -0.284971 -0.386744 0.877052
vn -0.117010 -0.925539 0.360120
vn 0.000000 -0.386744 0.922187
vn 0.000000 -0.925539 0.378652
vn 0.284972 -0.386744 0.877052
vn 0.117010 -0.925539 0.360119
vn 0.542049 -0.386744 0.746064
vn 0.222566 -0.925539 0.306335
vn 0.746065 -0.386743 0.542048
vn 0.306335 -0.925539 0.222566
vn 0.877052 -0.386744 0.284971
vn 0.360119 -0.925539 0.117010
vn 0.922187 -0.386744 0.000001
vn 0.378652 -0.925539 0.000001
vn 0.877053 0.386743 -0.284971
vn 0.922187 0.386744 0.000001
vn 0.360119 0.925540 -0.117009
vn 0.378652 0.925539 0.000000
vn 0.306335 0.925540 -0.222565
vn 0.746065 0.386743 -0.542049
vn 0.222566 0.925540 -0.306335
vn 0.542048 0.386743 -0.746065
vn 0.117010 0.925539 -0.360120
vn 0.284971 0.386744 -0.877052
vn 0.000000 0.925539 -0.378652
vn 0.000000 0.386744 -0.922187
vn -0.117010 0.925540 -0.360119
vn -0.284972 0.386744 -0.877052
vn -0.222566 0.925540 -0.306334
vn -0.542049 0.386744 -0.746065
vn -0.306335 0.925539 -0.222566
vn -0.746065 0.386743 -0.542048
vn -0.360119 0.925539 -0.117010
vn -0.877052 0.386744 -0.284971
vn -0.378652 0.925539 0.000000
vn -0.922187 0.386745 0.000000
vn -0.360119 0.925539 0.117010
vn -0.877052 0.386744 0.284972
vn -0.306335 0.925539 0.222566
vn -0.746065 0.386743 0.542048
vn -0.222566 0.925540 0.306335
vn -0.542048 0.386743 0.746065
vn -0.117010 0.925539 0.360120
vn -0.284971 0.386744 0.877052
vn 0.000000 0.925539 0.378652
vn 0.000000 0.386744 0.922187
vn 0.117010 0.925539 0.360119
vn 0.284972 0.386744 0.877052
vn 0.222566 0.925539 0.306335
vn 0.542049 0.386744 0.746064
vn 0.306335 0.925540 0.222566
vn 0.746065 0.386743 0.542048
vn 0.360119 0.925539 0.117010
vn 0.877052 0.386744 0.284971
s 1
g pCylinder1
usemtl initialShadingGroup
f 3/83/1 6/1/2 66/4/3 63/2/4
f 6/1/2 9/3/5 69/6/6 66/4/3
f 9/3/5 12/5/7 72/8/8 69/6/6
f 12/5/7 15/7/9 75/10/10 72/8/8
f 15/7/9 18/9/11 78/12/12 75/10/10
f 18/9/11 21/11/13 81/14/14 78/12/12
f 21/11/13 24/13/15 84/16/16 81/14/14
f 24/13/15 27/15/17 87/18/18 84/16/16
f 27/15/17 30/17/19 90/20/20 87/18/18
f 30/17/19 33/19/21 93/22/22 90/20/20
f 33/19/21 36/21/23 96/24/24 93/22/22
f 36/21/23 39/23/25 99/26/26 96/24/24
f 39/23/25 42/25/27 102/28/28 99/26/26
f 42/25/27 45/27/29 105/30/30 102/28/28
f 45/27/29 48/29/31 108/32/32 105/30/30
f 48/29/31 51/31/33 111/34/34 108/32/32
f 51/31/33 54/33/35 114/36/36 111/34/34
f 54/33/35 57/35/37 117/38/38 114/36/36
f 57/35/37 60/37/39 120/40/40 117/38/38
f 60/37/39 3/39/1 63/84/4 120/40/40
s 2
f 8/42/41 5/41/42 1/60/43
f 11/43/44 8/42/41 1/60/43
f 14/44/45 11/43/44 1/60/43
f 17/45/46 14/44/45 1/60/43
f 20/46/47 17/45/46 1/60/43
f 23/47/48 20/46/47 1/60/43
f 26/48/49 23/47/48 1/60/43
f 29/49/50 26/48/49 1/60/43
f 32/50/51 29/49/50 1/60/43
f 35/51/52 32/50/51 1/60/43
f 38/52/53 35/51/52 1/60/43
f 41/53/54 38/52/53 1/60/43
f 44/54/55 41/53/54 1/60/43
f 47/55/56 44/54/55 1/60/43
f 50/56/57 47/55/56 1/60/43
f 53/57/58 50/56/57 1/60/43
f 56/58/59 53/57/58 1/60/43
f 59/59/60 56/58/59 1/60/43
f 62/61/61 59/59/60 1/60/43
f 5/41/42 62/61/61 1/60/43
s 3
f 65/81/62 68/62/63 2/82/64
f 68/62/63 71/63/65 2/82/64
f 71/63/65 74/64/66 2/82/64
f 74/64/66 77/65/67 2/82/64
f 77/65/67 80/66/68 2/82/64
f 80/66/68 83/67/69 2/82/64
f 83/67/69 86/68/70 2/82/64
f 86/68/70 89/69/71 2/82/64
f 89/69/71 92/70/72 2/82/64
f 92/70/72 95/71/73 2/82/64
f 95/71/73 98/72/74 2/82/64
f 98/72/74 101/73/75 2/82/64
f 101/73/75 104/74/76 2/82/64
f 104/74/76 107/75/77 2/82/64
f 107/75/77 110/76/78 2/82/64
f 110/76/78 113/77/79 2/82/64
f 113/77/79 116/78/80 2/82/64
f 116/78/80 119/79/81 2/82/64
f 119/79/81 122/80/82 2/82/64
f 122/80/82 65/81/62 2/82/64
s 1
f 3/83/1 4/87/83 7/89/84 6/1/2
s 2
f 4/86/85 5/41/42 8/42/41 7/88/86
s 1
f 6/1/2 7/89/84 10/91/87 9/3/5
s 2
f 7/88/86 8/42/41 11/43/44 10/90/88
s 1
f 9/3/5 10/91/87 13/93/89 12/5/7
s 2
f 10/90/88 11/43/44 14/44/45 13/92/90
s 1
f 12/5/7 13/93/89 16/95/91 15/7/9
s 2
f 13/92/90 14/44/45 17/45/46 16/94/92
s 1
f 15/7/9 16/95/91 19/97/93 18/9/11
s 2
f 16/94/92 17/45/46 20/46/47 19/96/94
s 1
f 18/9/11 19/97/93 22/99/95 21/11/13
s 2
f 19/96/94 20/46/47 23/47/48 22/98/96
s 1
f 21/11/13 22/99/95 25/101/97 24/13/15
s 2
f 22/98/96 23/47/48 26/48/49 25/100/98
s 1
f 24/13/15 25/101/97 28/103/99 27/15/17
s 2
f 25/100/98 26/48/49 29/49/50 28/102/100
s 1
f 27/15/17 28/103/99 31/105/101 30/17/19
s 2
f 28/102/100 29/49/50 32/50/51 31/104/102
s 1
f 30/17/19 31/105/101 34/107/103 33/19/21
s 2
f 31/104/102 32/50/51 35/51/52 34/106/104
s 1
f 33/19/21 34/107/103 37/109/105 36/21/23
s 2
f 34/106/104 35/51/52 38/52/53 37/108/106
s 1
f 36/21/23 37/109/105 40/111/107 39/23/25
s 2
f 37/108/106 38/52/53 41/53/54 40/110/108
s 1
f 39/23/25 40/111/107 43/113/109 42/25/27
s 2
f 40/110/108 41/53/54 44/54/55 43/112/110
s 1
f 42/25/27 43/113/109 46/115/111 45/27/29
s 2
f 43/112/110 44/54/55 47/55/56 46/114/112
s 1
f 45/27/29 46/115/111 49/117/113 48/29/31
s 2
f 46/114/112 47/55/56 50/56/57 49/116/114
s 1
f 48/29/31 49/117/113 52/119/115 51/31/33
s 2
f 49/116/114 50/56/57 53/57/58 52/118/116
s 1
f 51/31/33 52/119/115 55/121/117 54/33/35
s 2
f 52/118/116 53/57/58 56/58/59 55/120/118
s 1
f 54/33/35 55/121/117 58/123/119 57/35/37
s 2
f 55/120/118 56/58/59 59/59/60 58/122/120
s 1
f 57/35/37 58/123/119 61/125/121 60/37/39
s 2
f 58/122/120 59/59/60 62/61/61 61/124/122
f 5/41/42 4/86/85 61/124/122 62/61/61
s 1
f 4/85/83 3/39/1 60/37/39 61/125/121
f 63/84/4 64/128/123 121/166/124 120/40/40
s 3
f 64/127/125 65/81/62 122/80/82 121/165/126
f 65/81/62 64/127/125 67/130/127 68/62/63
s 1
f 64/126/123 63/2/4 66/4/3 67/129/128
s 3
f 68/62/63 67/130/127 70/132/129 71/63/65
s 1
f 67/129/128 66/4/3 69/6/6 70/131/130
s 3
f 71/63/65 70/132/129 73/134/131 74/64/66
s 1
f 70/131/130 69/6/6 72/8/8 73/133/132
s 3
f 74/64/66 73/134/131 76/136/133 77/65/67
s 1
f 73/133/132 72/8/8 75/10/10 76/135/134
s 3
f 77/65/67 76/136/133 79/138/135 80/66/68
s 1
f 76/135/134 75/10/10 78/12/12 79/137/136
s 3
f 80/66/68 79/138/135 82/140/137 83/67/69
s 1
f 79/137/136 78/12/12 81/14/14 82/139/138
s 3
f 83/67/69 82/140/137 85/142/139 86/68/70
s 1
f 82/139/138 81/14/14 84/16/16 85/141/140
s 3
f 86/68/70 85/142/139 88/144/141 89/69/71
s 1
f 85/141/140 84/16/16 87/18/18 88/143/142
s 3
f 89/69/71 88/144/141 91/146/143 92/70/72
s 1
f 88/143/142 87/18/18 90/20/20 91/145/144
s 3
f 92/70/72 91/146/143 94/148/145 95/71/73
s 1
f 91/145/144 90/20/20 93/22/22 94/147/146
s 3
f 95/71/73 94/148/145 97/150/147 98/72/74
s 1
f 94/147/146 93/22/22 96/24/24 97/149/148
s 3
f 98/72/74 97/150/147 100/152/149 101/73/75
s 1
f 97/149/148 96/24/24 99/26/26 100/151/150
s 3
f 101/73/75 100/152/149 103/154/151 104/74/76
s 1
f 100/151/150 99/26/26 102/28/28 103/153/152
s 3
f 104/74/76 103/154/151 106/156/153 107/75/77
s 1
f 103/153/152 102/28/28 105/30/30 106/155/154
s 3
f 107/75/77 106/156/153 109/158/155 110/76/78
s 1
f 106/155/154 105/30/30 108/32/32 109/157/156
s 3
f 110/76/78 109/158/155 112/160/157 113/77/79
s 1
f 109/157/156 108/32/32 111/34/34 112/159/158
s 3
f 113/77/79 112/160/157 115/162/159 116/78/80
s 1
f 112/159/158 111/34/34 114/36/36 115/161/160
s 3
f 116/78/80 115/162/159 118/164/161 119/79/81
s 1
f 115/161/160 114/36/36 117/38/38 118/163/162
s 3
f 119/79/81 118/164/161 121/165/126 122/80/82
s 1
f 118/163/162 117/38/38 120/40/40 121/166/124
