# This file uses centimeters as units for non-parametric coordinates.

mtllib Cube.mtl
g default
v -10.750555 -10.750555 10.364855
v -10.364855 -10.910316 10.364855
v -10.364855 -10.750555 10.750555
v -10.364855 -10.364855 10.910316
v -10.750555 -10.364855 10.750555
v -10.910316 -10.364855 10.364855
v 10.750555 -10.750555 10.364855
v 10.910316 -10.364855 10.364855
v 10.750555 -10.364855 10.750555
v 10.364855 -10.364855 10.910316
v 10.364855 -10.750555 10.750555
v 10.364855 -10.910316 10.364855
v -10.750555 10.750555 10.364855
v -10.910316 10.364855 10.364855
v -10.750555 10.364855 10.750555
v -10.364855 10.364855 10.910316
v -10.364855 10.750555 10.750555
v -10.364855 10.910316 10.364855
v 10.750555 10.750555 10.364855
v 10.364855 10.910316 10.364855
v 10.364855 10.750555 10.750555
v 10.364855 10.364855 10.910316
v 10.750555 10.364855 10.750555
v 10.910316 10.364855 10.364855
v -10.750555 10.364855 -10.750555
v -10.910316 10.364855 -10.364855
v -10.750555 10.750555 -10.364855
v -10.364855 10.910316 -10.364855
v -10.364855 10.750555 -10.750555
v -10.364855 10.364855 -10.910316
v 10.750555 10.364855 -10.750555
v 10.364855 10.364855 -10.910316
v 10.364855 10.750555 -10.750555
v 10.364855 10.910316 -10.364855
v 10.750555 10.750555 -10.364855
v 10.910316 10.364855 -10.364855
v -10.750555 -10.750555 -10.364855
v -10.910316 -10.364855 -10.364855
v -10.750555 -10.364855 -10.750555
v -10.364855 -10.364855 -10.910316
v -10.364855 -10.750555 -10.750555
v -10.364855 -10.910316 -10.364855
v 10.750555 -10.750555 -10.364855
v 10.364855 -10.910316 -10.364855
v 10.364855 -10.750555 -10.750555
v 10.364855 -10.364855 -10.910316
v 10.750555 -10.364855 -10.750555
v 10.910316 -10.364855 -10.364855
v -10.679668 -10.679668 10.679668
v 10.679668 -10.679668 10.679668
v -10.679668 10.679668 10.679668
v 10.679668 10.679668 10.679668
v -10.679668 10.679668 -10.679668
v 10.679668 10.679668 -10.679668
v -10.679668 -10.679668 -10.679668
v 10.679668 -10.679668 -10.679668
vt 0.742773 0.007720
vt 0.008217 0.256730
vt 0.506223 0.007720
vt 0.257230 0.256730
vt 0.008217 0.493273
vt 0.244766 0.493273
vt 0.257230 0.493273
vt 0.755225 0.256730
vt 0.742773 0.505732
vt 0.506223 0.505732
vt 0.493772 0.493273
vt 0.493772 0.256730
vt 0.506223 0.244273
vt 0.742773 0.256730
vt 0.506223 0.256730
vt 0.244766 0.256730
vt 0.742773 0.742285
vt 0.506223 0.742285
vt 0.742773 0.493273
vt 0.506223 0.493273
vt 0.742773 0.244273
vt 0.991783 0.256730
vt 0.991783 0.493273
vt 0.755225 0.493273
vt 0.748998 0.007720
vt 0.991783 0.250500
vt 0.008217 0.250496
vt 0.742773 0.001494
vt 0.998008 0.256730
vt 0.001993 0.256730
vt 0.257230 0.250506
vt 0.499994 0.007720
vt 0.250991 0.256730
vt 0.506223 0.001496
vt 0.244766 0.250506
vt 0.991783 0.499503
vt 0.749002 0.742285
vt 0.001992 0.493273
vt 0.998008 0.493273
vt 0.742773 0.748509
vt 0.008217 0.499504
vt 0.499998 0.742285
vt 0.257230 0.499497
vt 0.244766 0.499497
vt 0.506223 0.748511
vt 0.251005 0.493273
vt 0.749000 0.493273
vt 0.749000 0.505732
vt 0.755225 0.499506
vt 0.742773 0.499506
vt 0.499997 0.493273
vt 0.506223 0.499507
vt 0.493772 0.499507
vt 0.499996 0.505732
vt 0.755225 0.250498
vt 0.748998 0.244273
vt 0.748999 0.256730
vt 0.742773 0.250498
vt 0.499997 0.244273
vt 0.493772 0.250499
vt 0.506223 0.250499
vt 0.499997 0.256730
vt 0.748998 0.001494
vt 0.001993 0.250496
vt 0.998008 0.250500
vt 0.250991 0.250506
vt 0.499994 0.001496
vt 0.998008 0.499503
vt 0.001992 0.499504
vt 0.749002 0.748509
vt 0.499998 0.748511
vt 0.251005 0.499497
vt 0.749000 0.499506
vt 0.499996 0.499507
vt 0.748998 0.250498
vt 0.499997 0.250499
vn -0.007519 -0.999944 0.007519
vn -0.382154 -0.924087 0.004694
vn -0.382154 -0.924087 -0.004694
vn -0.007519 -0.999944 -0.007519
vn -0.924087 -0.382154 0.004694
vn -0.999944 -0.007519 0.007519
vn -0.999944 -0.007519 -0.007519
vn -0.924087 -0.382154 -0.004694
vn -0.007519 -0.007519 0.999944
vn -0.004694 -0.382154 0.924087
vn 0.004694 -0.382154 0.924087
vn 0.007519 -0.007519 0.999944
vn -0.004694 -0.924087 0.382154
vn 0.007519 -0.999944 0.007519
vn 0.004694 -0.924087 0.382154
vn -0.924087 -0.004694 0.382154
vn -0.924087 0.004694 0.382154
vn -0.999944 0.007519 0.007519
vn -0.382154 -0.004694 0.924087
vn -0.007519 0.007519 0.999944
vn -0.382154 0.004694 0.924087
vn 0.999944 -0.007519 0.007519
vn 0.924087 -0.382154 0.004694
vn 0.924087 -0.382154 -0.004694
vn 0.999944 -0.007519 -0.007519
vn 0.382154 -0.924087 0.004694
vn 0.007519 -0.999944 -0.007519
vn 0.382154 -0.924087 -0.004694
vn 0.382154 -0.004694 0.924087
vn 0.382154 0.004694 0.924087
vn 0.007519 0.007519 0.999944
vn 0.924087 -0.004694 0.382154
vn 0.999944 0.007519 0.007519
vn 0.924087 0.004694 0.382154
vn -0.924087 0.382154 0.004694
vn -0.924087 0.382154 -0.004694
vn -0.999944 0.007519 -0.007519
vn -0.382154 0.924087 0.004694
vn -0.007519 0.999944 0.007519
vn -0.007519 0.999944 -0.007519
vn -0.382154 0.924087 -0.004694
vn -0.004694 0.924087 0.382154
vn 0.004694 0.924087 0.382154
vn 0.007519 0.999944 0.007519
vn -0.004694 0.382154 0.924087
vn 0.004694 0.382154 0.924087
vn 0.382154 0.924087 0.004694
vn 0.382154 0.924087 -0.004694
vn 0.007519 0.999944 -0.007519
vn 0.924087 0.382154 0.004694
vn 0.999944 0.007519 -0.007519
vn 0.924087 0.382154 -0.004694
vn -0.924087 0.004694 -0.382154
vn -0.924087 -0.004694 -0.382154
vn -0.382154 0.004694 -0.924087
vn -0.007519 0.007519 -0.999944
vn -0.007519 -0.007519 -0.999944
vn -0.382154 -0.004694 -0.924087
vn -0.004694 0.382154 -0.924087
vn 0.004694 0.382154 -0.924087
vn 0.007519 0.007519 -0.999944
vn -0.004694 0.924087 -0.382154
vn 0.004694 0.924087 -0.382154
vn 0.382154 0.004694 -0.924087
vn 0.382154 -0.004694 -0.924087
vn 0.007519 -0.007519 -0.999944
vn 0.924087 0.004694 -0.382154
vn 0.924087 -0.004694 -0.382154
vn -0.004694 -0.924087 -0.382154
vn 0.004694 -0.924087 -0.382154
vn -0.004694 -0.382154 -0.924087
vn 0.004694 -0.382154 -0.924087
vn -0.887921 -0.325266 0.325267
vn -0.325267 -0.887921 0.325266
vn -0.325266 -0.325267 0.887921
vn 0.325267 -0.887921 0.325265
vn 0.887921 -0.325265 0.325267
vn 0.325265 -0.325267 0.887921
vn -0.325267 0.887921 0.325265
vn -0.887921 0.325265 0.325267
vn -0.325265 0.325267 0.887921
vn 0.887921 0.325266 0.325267
vn 0.325267 0.887921 0.325266
vn 0.325266 0.325267 0.887921
vn -0.325266 0.325267 -0.887921
vn -0.887921 0.325266 -0.325267
vn -0.325267 0.887921 -0.325266
vn 0.887921 0.325265 -0.325267
vn 0.325265 0.325267 -0.887921
vn 0.325267 0.887921 -0.325265
vn -0.325267 -0.887921 -0.325265
vn -0.887921 -0.325265 -0.325267
vn -0.325265 -0.325267 -0.887921
vn 0.887921 -0.325266 -0.325267
vn 0.325267 -0.887921 -0.325266
vn 0.325266 -0.325267 -0.887921
s 1
g pCube1
usemtl initialShadingGroup
f 2/1/1 1/25/2 37/56/3 42/21/4
s 2
f 1/26/5 6/22/6 38/8/7 37/55/8
s 3
f 4/2/9 3/27/10 11/35/11 10/16/12
s 1
f 3/28/13 2/1/1 12/3/14 11/34/15
s 2
f 6/22/6 5/29/16 15/39/17 14/23/18
s 3
f 5/30/19 4/2/9 16/5/20 15/38/21
s 4
f 8/4/22 7/31/23 43/60/24 48/12/25
s 1
f 7/32/26 12/3/14 44/13/27 43/59/28
s 3
f 10/16/12 9/33/29 23/46/30 22/6/31
s 4
f 9/33/32 8/4/22 24/7/33 23/46/34
s 2
f 14/23/18 13/36/35 27/49/36 26/24/37
s 5
f 13/37/38 18/17/39 28/9/40 27/48/41
f 18/17/39 17/40/42 21/45/43 20/18/44
s 3
f 17/41/45 16/5/20 22/6/31 21/44/46
s 5
f 20/18/44 19/42/47 35/54/48 34/10/49
s 4
f 19/43/50 24/7/33 36/11/51 35/53/52
s 2
f 26/24/37 25/47/53 39/57/54 38/8/7
s 6
f 25/47/55 30/19/56 40/14/57 39/57/58
f 30/19/56 29/50/59 33/52/60 32/20/61
s 5
f 29/50/62 28/9/40 34/10/49 33/52/63
s 6
f 32/20/61 31/51/64 47/62/65 46/15/66
s 4
f 31/51/67 36/11/51 48/12/25 47/62/68
s 1
f 42/21/4 41/58/69 45/61/70 44/13/27
s 6
f 41/58/71 40/14/57 46/15/66 45/61/72
s 3
f 4/2/9 10/16/12 22/6/31 16/5/20
s 5
f 18/17/39 20/18/44 34/10/49 28/9/40
s 6
f 30/19/56 32/20/61 46/15/66 40/14/57
s 1
f 42/21/4 44/13/27 12/3/14 2/1/1
s 4
f 8/4/22 48/12/25 36/11/51 24/7/33
s 2
f 38/8/7 6/22/6 14/23/18 26/24/37
f 5/29/16 6/22/6 1/26/5 49/65/73
s 1
f 1/25/2 2/1/1 3/28/13 49/63/74
s 3
f 3/27/10 4/2/9 5/30/19 49/64/75
s 1
f 11/34/15 12/3/14 7/32/26 50/67/76
s 4
f 7/31/23 8/4/22 9/33/32 50/66/77
s 3
f 9/33/29 10/16/12 11/35/11 50/66/78
s 5
f 17/40/42 18/17/39 13/37/38 51/70/79
s 2
f 13/36/35 14/23/18 15/39/17 51/68/80
s 3
f 15/38/21 16/5/20 17/41/45 51/69/81
s 4
f 23/46/34 24/7/33 19/43/50 52/72/82
s 5
f 19/42/47 20/18/44 21/45/43 52/71/83
s 3
f 21/44/46 22/6/31 23/46/30 52/72/84
s 6
f 29/50/59 30/19/56 25/47/55 53/73/85
s 2
f 25/47/53 26/24/37 27/49/36 53/73/86
s 5
f 27/48/41 28/9/40 29/50/62 53/73/87
s 4
f 35/53/52 36/11/51 31/51/67 54/74/88
s 6
f 31/51/64 32/20/61 33/52/60 54/74/89
s 5
f 33/52/63 34/10/49 35/54/48 54/74/90
s 1
f 41/58/69 42/21/4 37/56/3 55/75/91
s 2
f 37/55/8 38/8/7 39/57/54 55/75/92
s 6
f 39/57/58 40/14/57 41/58/71 55/75/93
s 4
f 47/62/68 48/12/25 43/60/24 56/76/94
s 1
f 43/59/28 44/13/27 45/61/70 56/76/95
s 6
f 45/61/72 46/15/66 47/62/65 56/76/96
