# This file uses centimeters as units for non-parametric coordinates.

mtllib Arch.mtl
g default
v -158.539474 157.167419 -134.468719
v -158.539474 152.743225 -136.301285
v -162.963669 152.743225 -134.468719
v -164.796234 152.743225 -130.044525
v -162.963669 157.167419 -130.044525
v -158.539474 158.999985 -130.044525
v -162.963623 1.832509 -130.033752
v -164.796234 6.256741 -130.044525
v -162.963669 6.256740 -134.468719
v -158.539474 6.256740 -136.301285
v -158.539474 1.832546 -134.468719
v -158.539474 -0.000014 -130.044525
v 157.539413 157.167419 -134.468719
v 157.539413 158.999985 -130.044525
v 161.963608 157.167419 -130.044525
v 163.796173 152.743225 -130.044525
v 161.963608 152.743225 -134.468719
v 157.539413 152.743225 -136.301285
v 161.963562 1.832507 -130.033539
v 157.539413 -0.000014 -130.044525
v 157.539413 1.832546 -134.468719
v 157.539413 6.256740 -136.301285
v 161.963608 6.256740 -134.468719
v 163.796173 6.256741 -130.044525
v -101.393883 1.632382 -130.515167
v -105.818222 -0.000014 -130.483078
v -105.780441 1.844902 -134.601166
v -105.343796 6.256740 -136.301285
v -100.917969 5.997849 -134.601166
v -99.089859 5.746554 -130.483078
v -101.130379 32.859230 -136.301285
v -96.870270 31.475039 -134.468719
v -95.105675 30.901690 -130.044525
v -86.026642 62.501995 -136.301285
v -82.402779 59.869106 -134.468719
v -80.901726 58.778526 -130.044525
v -62.502022 86.026634 -136.301285
v -59.869129 82.402771 -134.468719
v -58.778549 80.901718 -130.044525
v -32.859261 101.130386 -136.301285
v -31.475067 96.870277 -134.468719
v -30.901714 95.105682 -130.044525
v -0.000002 106.334785 -136.301285
v -0.000000 101.855446 -134.468719
v 0.000000 100.000038 -130.044525
v 32.859257 101.130402 -136.301285
v 31.475065 96.870293 -134.468719
v 30.901714 95.105698 -130.044525
v 86.026672 62.502018 -136.301285
v 82.402809 59.869125 -134.468719
v 80.901756 58.778545 -130.044525
v 101.130417 32.859241 -136.301285
v 96.870308 31.475054 -134.468719
v 95.105713 30.901705 -130.044525
v 101.393860 1.632383 -130.515366
v 99.089836 5.746562 -130.483078
v 100.919342 5.990509 -134.601364
v 105.343781 6.256740 -136.301285
v 105.780418 1.844902 -134.601166
v 105.818199 -0.000014 -130.483078
v 161.963562 1.832520 -56.809910
v 163.796173 6.256753 -56.798923
v 161.963608 6.256754 -52.374729
v 157.539413 6.256755 -50.542168
v 157.539413 1.832561 -52.374729
v 157.539413 -0.000001 -56.798923
v 157.539413 157.167435 -52.374729
v 157.539413 152.743240 -50.542168
v 161.963608 152.743240 -52.374729
v 163.796173 152.743240 -56.798923
v 161.963608 157.167435 -56.798923
v 157.539413 159.000000 -56.798923
v 100.870987 6.225809 -52.375011
v 99.021233 6.179725 -56.798923
v 101.372490 1.751893 -56.565117
v 105.818199 -0.000001 -56.360374
v 105.780418 1.844916 -52.242287
v 105.343781 6.256755 -50.542168
v -158.539474 1.832561 -52.374722
v -158.539474 6.256754 -50.542160
v -162.963669 6.256754 -52.374722
v -164.796234 6.256753 -56.798916
v -162.963623 1.832522 -56.809692
v -158.539474 -0.000001 -56.798912
v -158.539474 157.167435 -52.374722
v -158.539474 159.000000 -56.798916
v -162.963669 157.167435 -56.798916
v -164.796234 152.743240 -56.798916
v -162.963669 152.743240 -52.374722
v -158.539474 152.743240 -50.542160
v 95.105713 30.901716 -56.798927
v 96.870308 31.475067 -52.374733
v 101.130417 32.859257 -50.542171
v 80.901756 58.778561 -56.798927
v 82.402809 59.869141 -52.374733
v 86.026672 62.502029 -50.542171
v 32.859257 101.130409 -50.542171
v 31.475065 96.870300 -52.374733
v 30.901714 95.105705 -56.798927
v 0.000000 100.000046 -56.798923
v -0.000000 101.855453 -52.374733
v -0.000001 106.334793 -50.542171
v -62.502022 86.026649 -50.542156
v -59.869129 82.402786 -52.374718
v -58.778549 80.901733 -56.798912
v -80.901726 58.778542 -56.798912
v -82.402779 59.869122 -52.374718
v -86.026642 62.502010 -50.542156
v 62.502029 86.026649 -136.301285
v 59.869141 82.402786 -134.468719
v 58.778561 80.901733 -130.044525
v -95.105675 30.901701 -56.798912
v -96.870270 31.475054 -52.374718
v -101.130379 32.859245 -50.542156
v -101.393883 1.632395 -56.328266
v -99.089859 5.746567 -56.360355
v -100.917969 5.997863 -52.242275
v -105.343796 6.256755 -50.542156
v -105.780441 1.844916 -52.242275
v -105.818222 -0.000001 -56.360355
v -32.859261 101.130402 -50.542160
v -31.475067 96.870293 -52.374722
v -30.901714 95.105698 -56.798916
v 62.502029 86.026665 -50.542168
v 59.869141 82.402802 -52.374729
v 58.778561 80.901749 -56.798923
v -162.150558 156.354309 -133.655609
v -162.150665 2.645434 -133.651382
v 161.150497 156.354309 -133.655609
v 161.150604 2.645429 -133.651306
v -102.144997 2.511501 -133.857880
v 102.145576 2.508820 -133.857971
v 161.150604 2.645443 -53.192150
v 161.150497 156.354324 -53.187847
v 102.123199 2.603075 -53.087704
v -162.150665 2.645448 -53.192059
v -162.150558 156.354324 -53.187840
v -102.144997 2.511515 -52.985558
vt 0.526414 0.260575
vt 0.540003 0.274115
vt 0.526068 0.101752
vt 0.183782 0.274579
vt 0.170114 0.274530
vt 0.008906 0.273282
vt 0.183500 0.088868
vt 0.244631 0.131077
vt 0.240015 0.102297
vt 0.239474 0.089235
vt 0.008596 0.355247
vt 0.170169 0.354425
vt 0.239241 0.009101
vt 0.184328 0.526827
vt 0.183837 0.354474
vt 0.526603 0.353554
vt 0.240902 0.526669
vt 0.525829 0.008791
vt 0.468686 0.008459
vt 0.540168 0.353520
vt 0.526910 0.525880
vt 0.526633 0.367116
vt 0.319215 0.423640
vt 0.422657 0.439705
vt 0.183330 0.009714
vt 0.698716 0.273803
vt 0.698882 0.353170
vt 0.526439 0.274149
vt 0.468895 0.088792
vt 0.526036 0.088187
vt 0.718430 0.814145
vt 0.826211 0.860185
vt 0.718336 0.721898
vt 0.826301 0.768045
vt 0.717700 0.545569
vt 0.826338 0.546217
vt 0.826392 0.583213
vt 0.718288 0.629467
vt 0.826376 0.675705
vt 0.718530 0.906168
vt 0.826118 0.952104
vt 0.718574 0.952104
vt 0.717951 0.989471
vt 0.718481 0.860185
vt 0.826162 0.906168
vt 0.718391 0.768045
vt 0.826263 0.814145
vt 0.718301 0.583213
vt 0.826405 0.629467
vt 0.718316 0.675705
vt 0.826357 0.721898
vt 0.183861 0.368069
vt 0.183762 0.260976
vt 0.183529 0.102406
vt 0.468412 0.101882
vt 0.463912 0.130725
vt 0.447610 0.162881
vt 0.422166 0.188407
vt 0.390068 0.204801
vt 0.354453 0.210478
vt 0.286637 0.188557
vt 0.261065 0.163132
vt 0.245384 0.497825
vt 0.287103 0.440094
vt 0.390484 0.423436
vt 0.448213 0.465106
vt 0.318821 0.204879
vt 0.826744 0.989472
vt 0.464653 0.497174
vt 0.469272 0.525991
vt 0.354835 0.417894
vt 0.261662 0.465650
vt 0.526466 0.267362
vt 0.537448 0.267339
vt 0.533201 0.263106
vt 0.533221 0.273979
vt 0.705490 0.271375
vt 0.532824 0.090586
vt 0.532844 0.099194
vt 0.701242 0.267018
vt 0.526253 0.094969
vt 0.183733 0.267777
vt 0.176951 0.274402
vt 0.176988 0.263528
vt 0.172691 0.267727
vt 0.176740 0.091292
vt 0.002014 0.270827
vt 0.183313 0.095637
vt 0.006336 0.266355
vt 0.176755 0.099881
vt 0.462595 0.091066
vt 0.714891 0.998008
vt 0.468717 0.095181
vt 0.709410 0.992155
vt 0.461939 0.099383
vt 0.457379 0.128613
vt 0.709387 0.952104
vt 0.442046 0.158854
vt 0.709336 0.906168
vt 0.418119 0.182859
vt 0.709278 0.860185
vt 0.387934 0.198276
vt 0.709219 0.814145
vt 0.354442 0.203614
vt 0.709173 0.768045
vt 0.320931 0.198347
vt 0.709108 0.721898
vt 0.266611 0.159090
vt 0.709052 0.629467
vt 0.709068 0.583213
vt 0.251154 0.128942
vt 0.714645 0.536969
vt 0.245777 0.091473
vt 0.246472 0.099770
vt 0.709127 0.542858
vt 0.239682 0.095611
vt 0.001685 0.357779
vt 0.176561 0.007323
vt 0.177554 0.529387
vt 0.005983 0.362263
vt 0.180954 0.002959
vt 0.181981 0.533614
vt 0.183810 0.361272
vt 0.172744 0.361331
vt 0.177071 0.365545
vt 0.177006 0.354606
vt 0.835567 0.543088
vt 0.247403 0.529000
vt 0.245529 0.006977
vt 0.829859 0.536969
vt 0.242254 0.533446
vt 0.241069 0.002809
vt 0.529289 0.532656
vt 0.528180 0.002003
vt 0.701436 0.359945
vt 0.533694 0.528408
vt 0.532604 0.006358
vt 0.705666 0.355571
vt 0.526657 0.360335
vt 0.533386 0.353690
vt 0.533410 0.364557
vt 0.537640 0.360309
vt 0.251920 0.499928
vt 0.835625 0.583213
vt 0.267229 0.469669
vt 0.835640 0.629467
vt 0.835584 0.721898
vt 0.321353 0.430165
vt 0.354853 0.424764
vt 0.835519 0.768045
vt 0.835414 0.860185
vt 0.418632 0.445269
vt 0.442665 0.469155
vt 0.835356 0.906168
vt 0.709085 0.675705
vt 0.290661 0.182999
vt 0.458126 0.499312
vt 0.835305 0.952104
vt 0.829800 0.998008
vt 0.462374 0.006214
vt 0.462809 0.528516
vt 0.835282 0.992155
vt 0.466753 0.002157
vt 0.467882 0.532775
vt 0.835474 0.814145
vt 0.388378 0.429972
vt 0.835607 0.675705
vt 0.291155 0.445637
vt 0.533210 0.267347
vt 0.705481 0.267010
vt 0.532835 0.094953
vt 0.176994 0.267762
vt 0.176749 0.095646
vt 0.002031 0.266319
vt 0.462605 0.095111
vt 0.709413 0.998008
vt 0.709135 0.536969
vt 0.245788 0.095513
vt 0.001668 0.362287
vt 0.177567 0.533627
vt 0.176552 0.002970
vt 0.177059 0.361307
vt 0.835558 0.536969
vt 0.245517 0.002798
vt 0.246714 0.533434
vt 0.533701 0.532648
vt 0.705675 0.359936
vt 0.532593 0.001992
vt 0.533403 0.360318
vt 0.835279 0.998008
vt 0.463493 0.532784
vt 0.462363 0.002168
vn -0.008496 0.018141 -0.999799
vn -0.003543 0.382286 -0.924037
vn 0.003543 0.382286 -0.924037
vn 0.008496 0.018141 -0.999799
vn -0.003543 0.924037 -0.382286
vn -0.005605 0.999709 -0.023480
vn 0.005605 0.999709 -0.023480
vn 0.003543 0.924037 -0.382286
vn -0.999656 0.011905 -0.023357
vn -0.924202 0.007555 -0.381830
vn -0.924203 -0.007568 -0.381826
vn -0.999656 -0.011890 -0.023359
vn -0.381829 0.007555 -0.924202
vn -0.008825 -0.003184 -0.999956
vn -0.381839 -0.007570 -0.924198
vn -0.380991 0.924461 -0.014784
vn -0.380991 0.924461 0.014784
vn -0.005605 0.999709 0.023479
vn -0.924461 0.380990 -0.014784
vn -0.999656 0.011905 0.023357
vn -0.924461 0.380990 0.014784
vn -0.924449 -0.381020 -0.014746
vn -0.924449 -0.381020 0.014746
vn -0.999656 -0.011890 0.023359
vn -0.381013 -0.924452 -0.014745
vn -0.031277 -0.999251 -0.022773
vn -0.031277 -0.999251 0.022773
vn -0.381013 -0.924452 0.014746
vn -0.022673 -0.919581 -0.392245
vn 0.015369 -0.919070 -0.393793
vn 0.028251 -0.999330 -0.023272
vn -0.021334 -0.369536 -0.928972
vn 0.001428 -0.002991 -0.999995
vn 0.014838 -0.370188 -0.928839
vn 0.999656 0.011905 -0.023357
vn 0.924460 0.380993 -0.014784
vn 0.924460 0.380993 0.014784
vn 0.999656 0.011905 0.023357
vn 0.380992 0.924460 -0.014784
vn 0.005605 0.999709 0.023479
vn 0.380992 0.924460 0.014784
vn 0.381829 0.007555 -0.924202
vn 0.381839 -0.007570 -0.924198
vn 0.008826 -0.003128 -0.999956
vn 0.924202 0.007555 -0.381830
vn 0.999656 -0.011889 -0.023359
vn 0.924203 -0.007568 -0.381826
vn 0.031831 -0.999234 -0.022758
vn 0.381013 -0.924452 -0.014744
vn 0.381013 -0.924452 0.014745
vn 0.031831 -0.999234 0.022758
vn 0.924448 -0.381024 -0.014745
vn 0.999656 -0.011889 0.023359
vn 0.924448 -0.381023 0.014745
vn 0.021721 -0.369504 -0.928975
vn -0.015085 -0.370173 -0.928840
vn -0.001429 -0.002942 -0.999995
vn 0.023084 -0.919597 -0.392185
vn -0.029730 -0.999289 -0.023204
vn -0.015624 -0.919086 -0.393747
vn 0.344464 -0.938677 -0.015151
vn 0.344464 -0.938677 0.015152
vn 0.028251 -0.999330 0.023272
vn 0.873254 -0.487031 -0.015154
vn 0.977505 -0.209659 -0.022975
vn 0.977505 -0.209659 0.022975
vn 0.873254 -0.487031 0.015154
vn -0.945715 -0.324045 -0.024835
vn -0.869830 -0.298984 -0.392434
vn -0.903464 -0.173344 -0.392052
vn -0.977441 -0.209955 -0.022966
vn -0.353234 -0.121444 -0.927619
vn -0.001652 -0.000568 -0.999999
vn -0.360287 -0.085745 -0.928892
vn -0.878598 -0.477369 -0.013567
vn -0.879248 -0.476060 0.017045
vn -0.977435 -0.209998 0.022855
vn -0.354402 -0.934983 -0.014379
vn -0.029063 -0.999304 0.023405
vn -0.355767 -0.934455 0.014941
vn 0.008826 -0.003128 0.999956
vn 0.381840 -0.007570 0.924198
vn 0.381830 0.007555 0.924202
vn 0.008496 0.018141 0.999799
vn 0.924203 -0.007568 0.381825
vn 0.924202 0.007555 0.381830
vn 0.023084 -0.919597 0.392185
vn -0.018047 -0.919188 0.393405
vn 0.021721 -0.369504 0.928975
vn -0.001452 -0.002957 0.999995
vn -0.017332 -0.370119 0.928823
vn 0.003543 0.382286 0.924038
vn -0.003543 0.382286 0.924037
vn -0.008496 0.018141 0.999799
vn 0.003543 0.924037 0.382286
vn -0.003543 0.924037 0.382286
vn -0.908664 -0.179330 0.377054
vn -0.871923 -0.300275 0.386762
vn -0.945462 -0.324782 0.024857
vn -0.373683 -0.088095 0.923364
vn -0.001676 -0.000576 0.999999
vn -0.358155 -0.123153 0.925504
vn -0.008825 -0.003184 0.999956
vn -0.021334 -0.369535 0.928972
vn 0.014837 -0.370187 0.928839
vn 0.001428 -0.002991 0.999995
vn -0.022673 -0.919581 0.392245
vn 0.015368 -0.919070 0.393794
vn -0.924204 -0.007568 0.381825
vn -0.924202 0.007555 0.381830
vn -0.381839 -0.007570 0.924198
vn -0.381829 0.007555 0.924202
vn -0.308921 -0.950760 0.024963
vn -0.284971 -0.877052 0.386745
vn 0.000000 -0.922187 0.386744
vn 0.000000 -0.999688 0.024963
vn -0.117010 -0.360119 0.925540
vn -0.000606 -0.001866 0.999998
vn -0.000000 -0.001962 0.999998
vn 0.000000 -0.378651 0.925540
vn 0.587602 -0.808765 0.024963
vn 0.542049 -0.746065 0.386743
vn 0.746065 -0.542048 0.386744
vn 0.808765 -0.587602 0.024963
vn 0.222566 -0.306335 0.925539
vn 0.001153 -0.001587 0.999998
vn 0.001587 -0.001153 0.999998
vn 0.306336 -0.222566 0.925539
vn 0.308921 -0.950760 -0.024963
vn 0.308921 -0.950760 0.024963
vn 0.587602 -0.808765 -0.024963
vn -0.308921 -0.950760 -0.024963
vn 0.000000 -0.999688 -0.024963
vn -0.808765 -0.587602 -0.024963
vn -0.808765 -0.587602 0.024963
vn -0.587602 -0.808765 0.024963
vn -0.587602 -0.808765 -0.024963
vn 0.808765 -0.587602 -0.024963
vn 0.945997 -0.323233 0.024711
vn 0.945997 -0.323233 -0.024711
vn 0.001652 -0.000568 0.999999
vn 0.000606 -0.001866 0.999998
vn -0.001153 -0.001587 0.999998
vn -0.001587 -0.001153 0.999998
vn -0.001587 -0.001153 -0.999998
vn -0.001153 -0.001587 -0.999998
vn -0.000606 -0.001866 -0.999998
vn 0.000000 -0.001962 -0.999998
vn 0.000606 -0.001866 -0.999998
vn 0.001153 -0.001587 -0.999998
vn 0.001587 -0.001153 -0.999998
vn 0.001652 -0.000568 -0.999999
vn 0.903466 -0.173284 -0.392075
vn 0.869829 -0.298996 -0.392426
vn 0.360337 -0.085703 -0.928877
vn 0.353236 -0.121449 -0.927617
vn 0.746065 -0.542048 -0.386744
vn 0.306335 -0.222566 -0.925539
vn 0.542048 -0.746065 -0.386744
vn 0.222566 -0.306336 -0.925539
vn 0.284971 -0.877052 -0.386744
vn 0.117010 -0.360119 -0.925539
vn 0.000000 -0.922187 -0.386744
vn -0.000000 -0.378652 -0.925539
vn -0.284971 -0.877053 -0.386743
vn -0.117010 -0.360120 -0.925539
vn -0.306336 -0.222566 -0.925539
vn -0.222566 -0.306336 -0.925539
vn -0.746065 -0.542048 -0.386744
vn -0.542047 -0.746066 -0.386744
vn -0.746065 -0.542048 0.386744
vn -0.306335 -0.222566 0.925539
vn -0.222566 -0.306335 0.925539
vn -0.542048 -0.746065 0.386744
vn 0.117009 -0.360118 0.925540
vn 0.284972 -0.877053 0.386743
vn 0.869829 -0.298996 0.392427
vn 0.353236 -0.121449 0.927618
vn 0.903465 -0.173284 0.392076
vn 0.360336 -0.085703 0.928877
vn -0.325269 0.887919 -0.325270
vn -0.325270 0.325268 -0.887919
vn -0.887919 0.325268 -0.325270
vn -0.325787 -0.887828 -0.325000
vn -0.887822 -0.325801 -0.325000
vn -0.325667 -0.325668 -0.887627
vn 0.325271 0.325267 -0.887919
vn 0.325269 0.887918 -0.325272
vn 0.887919 0.325267 -0.325270
vn 0.887822 -0.325806 -0.324997
vn 0.325796 -0.887827 -0.324994
vn 0.325678 -0.325673 -0.887621
vn 0.835589 -0.421198 -0.352682
vn 0.285325 -0.891189 -0.352665
vn 0.288622 -0.337930 -0.895824
vn -0.285065 -0.891371 -0.352414
vn -0.835638 -0.421356 -0.352375
vn -0.288268 -0.338058 -0.895890
vn 0.325796 -0.887826 0.324994
vn 0.887822 -0.325805 0.324997
vn 0.325674 -0.325675 0.887622
vn 0.325269 0.887920 0.325267
vn 0.325269 0.325269 0.887919
vn 0.887919 0.325268 0.325271
vn -0.321746 -0.333720 0.886065
vn -0.855117 -0.402214 0.327108
vn -0.318230 -0.883590 0.343509
vn -0.325787 -0.887828 0.325000
vn -0.325666 -0.325666 0.887628
vn -0.887823 -0.325800 0.325001
vn -0.325269 0.325270 0.887919
vn -0.325268 0.887920 0.325268
vn -0.887919 0.325268 0.325270
vn 0.285324 -0.891189 0.352666
vn 0.835588 -0.421198 0.352684
vn 0.288618 -0.337930 0.895826
s 1
g pPlane10
usemtl initialShadingGroup
f 2/1/1 1/73/2 13/82/3 18/53/4
s 2
f 1/73/5 6/28/6 14/4/7 13/82/8
s 3
f 4/2/9 3/74/10 9/80/11 8/26/12
s 1
f 3/75/13 2/1/1 10/3/14 9/79/15
s 2
f 6/28/6 5/76/16 87/140/17 86/16/18
s 3
f 5/76/19 4/2/9 88/20/20 87/140/21
f 8/26/12 7/77/22 83/138/23 82/27/24
s 4
f 7/78/25 12/30/26 84/18/27 83/137/28
f 12/30/26 11/81/29 27/93/30 26/29/31
s 1
f 11/81/32 10/3/14 28/55/33 27/93/34
s 5
f 16/5/35 15/83/36 71/126/37 70/12/38
s 2
f 15/83/39 14/4/7 72/15/40 71/126/41
s 1
f 18/53/4 17/84/42 23/90/43 22/54/44
s 5
f 17/85/45 16/5/35 24/6/46 23/89/47
s 6
f 20/7/48 19/86/49 61/118/50 66/25/51
s 5
f 19/87/52 24/6/46 62/11/53 61/117/54
s 1
f 22/54/44 21/88/55 59/116/56 58/9/57
s 6
f 21/88/58 20/7/48 60/10/59 59/116/60
s 4
f 26/29/31 25/91/61 115/160/62 120/19/63
s 7
f 25/92/64 30/43/65 116/68/66 115/159/67
f 54/48/68 53/110/69 57/115/70 56/35/71
s 1
f 53/111/72 52/8/73 58/9/57 57/114/74
s 7
f 56/35/71 55/112/75 75/130/76 74/36/77
s 6
f 55/113/78 60/10/59 76/13/79 75/129/80
s 10
f 64/14/81 63/119/82 69/125/83 68/52/84
s 5
f 63/120/85 62/11/53 70/12/38 69/124/86
s 6
f 66/25/51 65/121/87 77/132/88 76/13/79
s 10
f 65/122/89 64/14/81 78/17/90 77/131/91
f 68/52/84 67/123/92 85/139/93 90/22/94
s 2
f 67/123/95 72/15/40 86/16/18 85/139/96
s 7
f 74/36/77 73/127/97 92/144/98 91/37/99
s 10
f 73/128/100 78/17/90 93/63/101 92/143/102
f 80/21/103 79/133/104 119/164/105 118/70/106
s 4
f 79/134/107 84/18/27 120/19/63 119/163/108
s 3
f 82/27/24 81/135/109 89/142/110 88/20/20
s 10
f 81/136/111 80/21/103 90/22/94 89/141/112
s 7
f 99/51/113 98/147/114 101/150/115 100/34/116
s 10
f 98/148/117 97/23/118 102/71/119 101/149/120
s 7
f 105/32/121 104/151/122 107/154/123 106/45/124
s 10
f 104/152/125 103/24/126 108/66/127 107/153/128
s 6
f 66/25/51 76/13/79 60/10/59 20/7/48
s 5
f 62/11/53 24/6/46 16/5/35 70/12/38
s 3
f 8/26/12 82/27/24 88/20/20 4/2/9
s 2
f 14/4/7 6/28/6 86/16/18 72/15/40
s 4
f 26/29/31 120/19/63 84/18/27 12/30/26
s 7
f 42/31/129 123/47/130 105/32/121 39/44/131
f 48/33/132 99/51/113 100/34/116 45/46/133
f 56/35/71 74/36/77 91/37/99 54/48/68
f 51/38/134 94/49/135 126/39/136 111/50/137
f 36/40/138 106/45/124 112/41/139 33/42/140
f 33/42/140 112/41/139 116/68/66 30/43/65
f 39/44/131 105/32/121 106/45/124 36/40/138
f 45/46/133 100/34/116 123/47/130 42/31/129
f 54/48/68 91/37/99 94/49/135 51/38/134
f 48/33/132 111/50/137 126/39/136 99/51/113
s 10
f 68/52/84 90/22/94 80/21/103 118/70/106 114/69/141 108/66/127 103/24/126 121/65/142 102/71/119 97/23/118 124/64/143 96/72/144 93/63/101 78/17/90 64/14/81
s 1
f 10/3/14 2/1/1 18/53/4 22/54/44 58/9/57 52/8/73 49/62/145 109/61/146 46/67/147 43/60/148 40/59/149 37/58/150 34/57/151 31/56/152 28/55/33
s 7
f 30/43/65 29/94/153 32/97/154 33/42/140
s 1
f 29/95/155 28/55/33 31/56/152 32/96/156
s 7
f 33/42/140 32/97/154 35/99/157 36/40/138
s 1
f 32/96/156 31/56/152 34/57/151 35/98/158
s 7
f 36/40/138 35/99/157 38/101/159 39/44/131
s 1
f 35/98/158 34/57/151 37/58/150 38/100/160
s 7
f 39/44/131 38/101/159 41/103/161 42/31/129
s 1
f 38/100/160 37/58/150 40/59/149 41/102/162
s 7
f 42/31/129 41/103/161 44/105/163 45/46/133
s 1
f 41/102/162 40/59/149 43/60/148 44/104/164
s 7
f 45/46/133 44/105/163 47/107/165 48/33/132
s 1
f 44/104/164 43/60/148 46/67/147 47/106/166
f 49/62/145 50/108/167 110/156/168 109/61/146
s 7
f 50/109/169 51/38/134 111/50/137 110/155/170
f 51/38/134 50/109/169 53/110/69 54/48/68
s 1
f 50/108/167 49/62/145 52/8/73 53/111/72
s 7
f 91/37/99 92/144/98 95/146/171 94/49/135
s 10
f 92/143/102 93/63/101 96/72/144 95/145/172
f 97/23/118 98/148/117 125/168/173 124/64/143
s 7
f 98/147/114 99/51/113 126/39/136 125/167/174
s 10
f 103/24/126 104/152/125 122/166/175 121/65/142
s 7
f 104/151/122 105/32/121 123/47/130 122/165/176
f 106/45/124 107/154/123 113/158/177 112/41/139
s 10
f 107/153/128 108/66/127 114/69/141 113/157/178
s 7
f 48/33/132 47/107/165 110/155/170 111/50/137
s 1
f 47/106/166 46/67/147 109/61/146 110/156/168
s 7
f 112/41/139 113/158/177 117/162/179 116/68/66
s 10
f 113/157/178 114/69/141 118/70/106 117/161/180
s 7
f 100/34/116 101/150/115 122/165/176 123/47/130
s 10
f 101/149/120 102/71/119 121/65/142 122/166/175
s 7
f 94/49/135 95/146/171 125/167/174 126/39/136
s 10
f 95/145/172 96/72/144 124/64/143 125/168/173
s 2
f 5/76/16 6/28/6 1/73/5 127/169/181
s 1
f 1/73/2 2/1/1 3/75/13 127/169/182
s 3
f 3/74/10 4/2/9 5/76/19 127/169/183
s 4
f 11/81/29 12/30/26 7/78/25 128/171/184
s 3
f 7/77/22 8/26/12 9/80/11 128/170/185
s 1
f 9/79/15 10/3/14 11/81/32 128/171/186
f 17/84/42 18/53/4 13/82/3 129/172/187
s 2
f 13/82/8 14/4/7 15/83/39 129/172/188
s 5
f 15/83/36 16/5/35 17/85/45 129/172/189
f 23/89/47 24/6/46 19/87/52 130/174/190
s 6
f 19/86/49 20/7/48 21/88/58 130/173/191
s 1
f 21/88/55 22/54/44 23/90/43 130/173/192
s 7
f 29/94/153 30/43/65 25/92/64 131/176/193
s 4
f 25/91/61 26/29/31 27/93/30 131/175/194
s 1
f 27/93/34 28/55/33 29/95/155 131/175/195
s 6
f 59/116/60 60/10/59 55/113/78 132/178/196
s 7
f 55/112/75 56/35/71 57/115/70 132/177/197
s 1
f 57/114/74 58/9/57 59/116/56 132/178/198
s 6
f 65/121/87 66/25/51 61/118/50 133/181/199
s 5
f 61/117/54 62/11/53 63/120/85 133/179/200
s 10
f 63/119/82 64/14/81 65/122/89 133/180/201
s 2
f 71/126/41 72/15/40 67/123/95 134/182/202
s 10
f 67/123/92 68/52/84 69/125/83 134/182/203
s 5
f 69/124/86 70/12/38 71/126/37 134/182/204
s 10
f 77/131/91 78/17/90 73/128/100 135/185/205
s 7
f 73/127/97 74/36/77 75/130/76 135/183/206
s 6
f 75/129/80 76/13/79 77/132/88 135/184/207
s 4
f 83/137/28 84/18/27 79/134/107 136/188/208
s 10
f 79/133/104 80/21/103 81/136/111 136/186/209
s 3
f 81/135/109 82/27/24 83/138/23 136/187/210
s 10
f 89/141/112 90/22/94 85/139/93 137/189/211
s 2
f 85/139/96 86/16/18 87/140/17 137/189/212
s 3
f 87/140/21 88/20/20 89/142/110 137/189/213
s 4
f 119/163/108 120/19/63 115/160/62 138/192/214
s 7
f 115/159/67 116/68/66 117/162/179 138/190/215
s 10
f 117/161/180 118/70/106 119/164/105 138/191/216
