# This file uses centimeters as units for non-parametric coordinates.

mtllib HalfCylinder.mtl
g default
v -30.901718 95.105713 -42.815710
v -30.470381 93.778183 -46.144090
v -29.429037 90.573250 -47.522747
v -58.778561 80.901756 -42.815710
v -57.958103 79.772499 -46.144090
v -55.977348 77.046219 -47.522747
v -80.901749 58.778561 -42.815710
v -79.772491 57.958103 -46.144090
v -77.046211 55.977348 -47.522747
v -95.105705 30.901714 -42.815710
v -93.778175 30.470375 -46.144090
v -90.573242 29.429029 -47.522747
v -95.045708 1.376734 -46.144148
v -95.293007 0.000000 -42.815710
v -98.335320 1.531613 -42.594695
v -99.198334 5.061835 -42.397816
v -97.820274 4.886258 -46.024006
v -94.488815 4.707036 -47.522747
v 95.045677 1.376731 -46.144148
v 94.488785 4.707033 -47.522747
v 97.866531 4.673210 -46.143908
v 99.263672 4.649081 -42.815710
v 98.349953 1.409282 -42.815710
v 95.292976 -0.000003 -42.815710
v 95.105659 30.901697 -42.815710
v 93.778137 30.470358 -46.144090
v 90.573204 29.429010 -47.522747
v 80.901703 58.778526 -42.815710
v 79.772446 57.958069 -46.144090
v 77.046165 55.977314 -47.522747
v 58.778530 80.901703 -42.815710
v 57.958073 79.772446 -46.144090
v 55.977318 77.046165 -47.522747
v 30.901701 95.105652 -42.815710
v 30.470362 93.778122 -46.144090
v 29.429016 90.573189 -47.522747
v 0.000000 100.000000 -42.815710
v -0.000001 98.604156 -46.144090
v -0.000005 95.234291 -47.522747
v -30.901718 95.105713 42.815710
v -30.470381 93.778183 46.144090
v -29.429037 90.573250 47.522747
v -58.778561 80.901756 42.815710
v -57.958103 79.772499 46.144090
v -55.977348 77.046219 47.522747
v -80.901749 58.778561 42.815710
v -79.772491 57.958103 46.144090
v -77.046211 55.977348 47.522747
v -95.105705 30.901714 42.815710
v -93.778175 30.470375 46.144090
v -90.573242 29.429029 47.522747
v -95.045708 1.376734 46.144148
v -94.488815 4.707036 47.522747
v -97.866562 4.673213 46.143908
v -99.263702 4.649085 42.815710
v -98.349983 1.409285 42.815710
v -95.293007 0.000000 42.815710
v 95.045677 1.376731 46.144148
v 95.292976 -0.000003 42.815710
v 98.335281 1.531611 42.594695
v 99.198296 5.061833 42.397816
v 97.820236 4.886256 46.024006
v 94.488785 4.707033 47.522747
v 95.105659 30.901697 42.815710
v 93.778137 30.470358 46.144090
v 90.573204 29.429010 47.522747
v 80.901703 58.778526 42.815710
v 79.772446 57.958069 46.144090
v 77.046165 55.977314 47.522747
v 58.778530 80.901703 42.815710
v 57.958073 79.772446 46.144090
v 55.977318 77.046165 47.522747
v 30.901701 95.105652 42.815710
v 30.470362 93.778122 46.144090
v 29.429016 90.573189 47.522747
v 0.000000 100.000000 42.815710
v -0.000001 98.604156 46.144090
v -0.000005 95.234291 47.522747
v 0.000000 4.707036 -47.522747
v 0.000000 1.378659 -46.144090
v 0.000000 0.000000 -42.815710
v 0.000000 4.707036 47.522747
v 0.000000 1.378659 46.144090
v 0.000000 0.000000 42.815710
v -97.630280 2.096906 -45.440432
v 97.649330 2.006335 -45.532257
v -97.649361 2.006338 45.532257
v 97.630249 2.096903 45.440432
vt 0.316205 0.204432
vt 0.684576 0.186378
vt 0.704362 0.204665
vt 0.297921 0.370934
vt 0.316206 0.370912
vt 0.124453 0.204004
vt 0.063323 0.371608
vt 0.185422 0.204199
vt 0.124454 0.371351
vt 0.246280 0.204335
vt 0.185423 0.371156
vt 0.297108 0.205243
vt 0.246281 0.371019
vt 0.755797 0.204733
vt 0.816325 0.204759
vt 0.755800 0.370616
vt 0.876860 0.204768
vt 0.816325 0.370591
vt 0.937423 0.204757
vt 0.876862 0.370581
vt 0.998007 0.204751
vt 0.937424 0.370592
vt 0.063323 0.203748
vt 0.001993 0.371608
vt 0.444211 0.019417
vt 0.392626 0.045651
vt 0.351684 0.086558
vt 0.325385 0.138115
vt 0.677058 0.138378
vt 0.650881 0.086783
vt 0.610027 0.045830
vt 0.558505 0.019507
vt 0.501249 0.186241
vt 0.501371 0.010403
vt 0.392628 0.529703
vt 0.351685 0.488795
vt 0.325386 0.437238
vt 0.317770 0.389208
vt 0.684574 0.388973
vt 0.677061 0.436974
vt 0.650882 0.488567
vt 0.610030 0.529522
vt 0.558508 0.555845
vt 0.501374 0.564950
vt 0.444213 0.555936
vt 0.501251 0.389111
vt 0.501244 0.370827
vt 0.686121 0.204644
vt 0.686118 0.370693
vt 0.501243 0.204525
vt 0.001992 0.203749
vt 0.705169 0.369884
vt 0.998008 0.370597
vt 0.317769 0.186145
vt 0.063323 0.194522
vt 0.441357 0.010611
vt 0.387191 0.038158
vt 0.124453 0.194805
vt 0.344199 0.081113
vt 0.185422 0.195022
vt 0.316585 0.135250
vt 0.246280 0.195173
vt 0.316342 0.193198
vt 0.306970 0.204830
vt 0.308069 0.188955
vt 0.300655 0.195274
vt 0.686019 0.193454
vt 0.701434 0.195533
vt 0.694294 0.189399
vt 0.695241 0.204625
vt 0.685856 0.135525
vt 0.755797 0.195615
vt 0.658370 0.081348
vt 0.816325 0.195644
vt 0.615471 0.038346
vt 0.876860 0.195654
vt 0.561371 0.010705
vt 0.937423 0.195641
vt 0.501378 0.001146
vt 0.001992 0.194522
vt 0.998007 0.195635
vt 0.063323 0.380835
vt 0.441359 0.564742
vt 0.124454 0.380550
vt 0.387192 0.537196
vt 0.185424 0.380333
vt 0.344201 0.494241
vt 0.316585 0.440104
vt 0.246281 0.380181
vt 0.316318 0.382122
vt 0.300861 0.380079
vt 0.308038 0.386196
vt 0.307064 0.370952
vt 0.685992 0.381922
vt 0.695330 0.370296
vt 0.694260 0.386154
vt 0.701636 0.379817
vt 0.755801 0.379735
vt 0.685860 0.439826
vt 0.816325 0.379707
vt 0.658371 0.494002
vt 0.876862 0.379695
vt 0.615474 0.537006
vt 0.937424 0.379708
vt 0.561374 0.564646
vt 0.501380 0.574207
vt 0.998008 0.379713
vt 0.001993 0.380835
vt 0.501243 0.195384
vt 0.501244 0.379969
vt 0.307065 0.195286
vt 0.695254 0.195523
vt 0.307066 0.380068
vt 0.695250 0.379827
vn -0.994060 0.107896 -0.014290
vn -0.967839 -0.251214 -0.013365
vn -0.967434 -0.252964 0.008992
vn -0.993857 0.109702 0.014619
vn -0.433973 -0.900875 -0.009525
vn -0.013650 -0.999792 -0.015121
vn -0.014762 -0.999778 0.015010
vn -0.432567 -0.901548 0.009856
vn 0.026565 -0.091503 -0.995450
vn 0.011604 -0.379754 -0.925015
vn -0.000000 -0.382582 -0.923922
vn -0.000000 -0.079757 -0.996814
vn 0.006891 -0.924101 -0.382087
vn 0.014762 -0.999778 -0.015010
vn -0.000000 -0.999880 -0.015466
vn -0.000000 -0.923975 -0.382452
vn 0.993857 0.109703 -0.014619
vn 0.916586 0.121100 -0.381057
vn 0.873326 0.296407 -0.386581
vn 0.946631 0.321954 -0.015342
vn 0.374278 0.019282 -0.927116
vn 0.031272 0.010629 -0.999454
vn 0.358496 0.121842 -0.925546
vn 0.432568 -0.901547 -0.009856
vn 0.433975 -0.900875 0.009525
vn 0.013650 -0.999793 0.015121
vn 0.967434 -0.252963 -0.008992
vn 0.994060 0.107896 0.014290
vn 0.967839 -0.251214 0.013365
vn -0.031272 0.010629 0.999454
vn -0.358496 0.121842 0.925546
vn -0.374277 0.019282 0.927117
vn -0.026565 -0.091503 0.995450
vn -0.873325 0.296407 0.386582
vn -0.946631 0.321953 0.015342
vn -0.916586 0.121099 0.381058
vn -0.011604 -0.379754 0.925015
vn -0.000000 -0.382582 0.923922
vn -0.000000 -0.079757 0.996814
vn -0.006891 -0.924101 0.382087
vn -0.000000 -0.999880 0.015466
vn -0.000000 -0.923975 0.382452
vn -0.308980 0.950946 -0.015291
vn -0.587717 0.808922 -0.015291
vn -0.587717 0.808922 0.015291
vn -0.308980 0.950946 0.015291
vn -0.808923 0.587716 -0.015291
vn -0.808923 0.587716 0.015291
vn -0.946177 0.323274 -0.015570
vn 0.946177 0.323274 0.015570
vn 0.808922 0.587717 -0.015291
vn 0.808922 0.587716 0.015291
vn 0.587716 0.808922 -0.015291
vn 0.587717 0.808922 0.015291
vn 0.308981 0.950945 -0.015291
vn 0.308981 0.950945 0.015291
vn 0.000001 0.999883 -0.015291
vn 0.000001 0.999883 0.015291
vn -0.019774 0.027217 -0.999434
vn -0.010467 0.032214 -0.999426
vn -0.026934 0.019568 -0.999446
vn -0.031885 0.010636 -0.999435
vn -0.027097 -0.091782 -0.995410
vn 0.026934 0.019568 -0.999446
vn 0.019774 0.027217 -0.999434
vn 0.010467 0.032214 -0.999426
vn 0.000000 0.033951 -0.999424
vn -0.010467 0.032214 0.999426
vn -0.019774 0.027217 0.999434
vn -0.026934 0.019568 0.999446
vn 0.027097 -0.091782 0.995410
vn 0.031885 0.010636 0.999435
vn 0.026934 0.019568 0.999446
vn 0.019774 0.027217 0.999434
vn 0.010467 0.032214 0.999426
vn 0.000000 0.033951 0.999423
vn -0.284971 0.877053 -0.386743
vn -0.542048 0.746065 -0.386743
vn -0.117009 0.360118 -0.925540
vn -0.222565 0.306335 -0.925540
vn -0.746065 0.542048 -0.386743
vn -0.306335 0.222565 -0.925540
vn -0.876825 0.293624 -0.380740
vn -0.365454 0.121762 -0.922831
vn -0.923036 0.117197 -0.366428
vn -0.392435 0.022380 -0.919507
vn 0.746065 0.542048 -0.386743
vn 0.306335 0.222565 -0.925539
vn 0.542048 0.746065 -0.386744
vn 0.222566 0.306335 -0.925539
vn 0.284971 0.877052 -0.386744
vn 0.117010 0.360118 -0.925540
vn 0.000001 0.922187 -0.386743
vn 0.000000 0.378650 -0.925540
vn -0.284970 0.877053 0.386743
vn 0.000001 0.922187 0.386743
vn -0.117009 0.360118 0.925540
vn 0.000000 0.378650 0.925540
vn -0.222565 0.306335 0.925540
vn -0.542048 0.746065 0.386743
vn -0.306334 0.222565 0.925540
vn -0.746066 0.542048 0.386743
vn 0.392436 0.022380 0.919507
vn 0.365454 0.121762 0.922831
vn 0.923036 0.117197 0.366428
vn 0.876825 0.293624 0.380740
vn 0.306335 0.222565 0.925539
vn 0.746065 0.542048 0.386743
vn 0.222566 0.306335 0.925539
vn 0.542048 0.746065 0.386744
vn 0.117010 0.360118 0.925540
vn 0.284971 0.877052 0.386744
vn -0.007663 -0.924111 -0.382047
vn -0.013557 -0.379258 -0.925192
vn 0.007663 -0.924111 0.382047
vn 0.013557 -0.379258 0.925192
vn -0.371479 -0.263206 -0.890351
vn -0.396975 -0.856239 -0.330553
vn -0.934153 -0.174695 -0.311192
vn 0.351007 -0.872494 -0.339926
vn 0.328148 -0.280738 -0.901945
vn 0.916615 -0.210681 -0.339752
vn -0.351006 -0.872494 0.339925
vn -0.328148 -0.280738 0.901945
vn -0.916614 -0.210682 0.339752
vn 0.371480 -0.263205 0.890352
vn 0.396976 -0.856239 0.330553
vn 0.934153 -0.174692 0.311191
s 1
g pCylinder1
usemtl initialShadingGroup
f 16/12/1 15/64/2 56/93/3 55/4/4
s 2
f 15/64/5 14/1/6 57/5/7 56/93/8
s 3
f 20/2/9 19/67/10 80/109/11 79/33/12
s 2
f 19/67/13 24/48/14 81/50/15 80/109/16
s 1
f 22/3/17 21/68/18 26/72/19 25/14/20
s 3
f 21/69/21 20/2/9 27/29/22 26/71/23
s 2
f 24/48/14 23/70/24 60/95/25 59/49/26
s 1
f 23/70/27 22/3/17 61/52/28 60/95/29
s 6
f 51/37/30 50/88/31 54/92/32 53/38/33
s 1
f 50/89/34 49/13/35 55/4/4 54/91/36
s 6
f 53/38/33 52/90/37 83/110/38 82/46/39
s 2
f 52/90/40 57/5/7 84/47/41 83/110/42
s 1
f 1/23/43 4/6/44 43/9/45 40/7/46
f 4/6/44 7/8/47 46/11/48 43/9/45
f 7/8/47 10/10/49 49/13/35 46/11/48
f 10/10/49 16/12/1 55/4/4 49/13/35
f 22/3/17 25/14/20 64/16/50 61/52/28
f 25/14/20 28/15/51 67/18/52 64/16/50
f 28/15/51 31/17/53 70/20/54 67/18/52
f 31/17/53 34/19/55 73/22/56 70/20/54
f 34/19/55 37/21/57 76/53/58 73/22/56
f 37/51/57 1/23/43 40/7/46 76/24/58
s 3
f 6/26/59 3/25/60 79/33/12
f 9/27/61 6/26/59 79/33/12
f 12/28/62 9/27/61 79/33/12
f 18/54/63 12/28/62 79/33/12
f 27/29/22 20/2/9 79/33/12
f 30/30/64 27/29/22 79/33/12
f 33/31/65 30/30/64 79/33/12
f 36/32/66 33/31/65 79/33/12
f 39/34/67 36/32/66 79/33/12
f 3/25/60 39/34/67 79/33/12
s 6
f 42/45/68 45/35/69 82/46/39
f 45/35/69 48/36/70 82/46/39
f 48/36/70 51/37/30 82/46/39
f 51/37/30 53/38/33 82/46/39
f 63/39/71 66/40/72 82/46/39
f 66/40/72 69/41/73 82/46/39
f 69/41/73 72/42/74 82/46/39
f 72/42/74 75/43/75 82/46/39
f 75/43/75 78/44/76 82/46/39
f 78/44/76 42/45/68 82/46/39
s 2
f 84/47/41 81/50/15 24/48/14 59/49/26
f 57/5/7 14/1/6 81/50/15 84/47/41
s 1
f 1/23/43 2/55/77 5/58/78 4/6/44
s 3
f 2/56/79 3/25/60 6/26/59 5/57/80
s 1
f 4/6/44 5/58/78 8/60/81 7/8/47
s 3
f 5/57/80 6/26/59 9/27/61 8/59/82
s 1
f 7/8/47 8/60/81 11/62/83 10/10/49
s 3
f 8/59/82 9/27/61 12/28/62 11/61/84
s 1
f 10/10/49 11/62/83 17/66/85 16/12/1
s 3
f 11/61/84 12/28/62 18/54/63 17/65/86
s 1
f 25/14/20 26/72/19 29/74/87 28/15/51
s 3
f 26/71/23 27/29/22 30/30/64 29/73/88
s 1
f 28/15/51 29/74/87 32/76/89 31/17/53
s 3
f 29/73/88 30/30/64 33/31/65 32/75/90
s 1
f 31/17/53 32/76/89 35/78/91 34/19/55
s 3
f 32/75/90 33/31/65 36/32/66 35/77/92
s 1
f 34/19/55 35/78/91 38/81/93 37/21/57
s 3
f 35/77/92 36/32/66 39/34/67 38/79/94
f 3/25/60 2/56/79 38/79/94 39/34/67
s 1
f 2/55/77 1/23/43 37/51/57 38/80/93
f 40/7/46 41/82/95 77/108/96 76/24/58
s 6
f 41/83/97 42/45/68 78/44/76 77/106/98
f 42/45/68 41/83/97 44/85/99 45/35/69
s 1
f 41/82/95 40/7/46 43/9/45 44/84/100
s 6
f 45/35/69 44/85/99 47/87/101 48/36/70
s 1
f 44/84/100 43/9/45 46/11/48 47/86/102
s 6
f 48/36/70 47/87/101 50/88/31 51/37/30
s 1
f 47/86/102 46/11/48 49/13/35 50/89/34
s 6
f 63/39/71 62/96/103 65/99/104 66/40/72
s 1
f 62/97/105 61/52/28 64/16/50 65/98/106
s 6
f 66/40/72 65/99/104 68/101/107 69/41/73
s 1
f 65/98/106 64/16/50 67/18/52 68/100/108
s 6
f 69/41/73 68/101/107 71/103/109 72/42/74
s 1
f 68/100/108 67/18/52 70/20/54 71/102/110
s 6
f 72/42/74 71/103/109 74/105/111 75/43/75
s 1
f 71/102/110 70/20/54 73/22/56 74/104/112
s 6
f 75/43/75 74/105/111 77/106/98 78/44/76
s 1
f 74/104/112 73/22/56 76/53/58 77/107/96
s 2
f 14/1/6 13/63/113 80/109/16 81/50/15
s 3
f 13/63/114 18/54/63 79/33/12 80/109/11
s 2
f 59/49/26 58/94/115 83/110/42 84/47/41
s 6
f 58/94/116 63/39/71 82/46/39 83/110/38
s 3
f 17/65/86 18/54/63 13/63/114 85/111/117
s 2
f 13/63/113 14/1/6 15/64/5 85/111/118
s 1
f 15/64/2 16/12/1 17/66/85 85/111/119
s 2
f 23/70/24 24/48/14 19/67/13 86/112/120
s 3
f 19/67/10 20/2/9 21/69/21 86/112/121
s 1
f 21/68/18 22/3/17 23/70/27 86/112/122
s 2
f 56/93/8 57/5/7 52/90/40 87/113/123
s 6
f 52/90/37 53/38/33 54/92/32 87/113/124
s 1
f 54/91/36 55/4/4 56/93/3 87/113/125
s 6
f 62/96/103 63/39/71 58/94/116 88/114/126
s 2
f 58/94/115 59/49/26 60/95/25 88/114/127
s 1
f 60/95/29 61/52/28 62/97/105 88/114/128
